<?xml version="1.0" standalone="no"?><!DOCTYPE svg PUBLIC "-//W3C//DTD SVG 1.1//EN" "http://www.w3.org/Graphics/SVG/1.1/DTD/svg11.dtd"><svg t="1780454230142" class="icon" viewBox="0 0 1024 1024" version="1.1" xmlns="http://www.w3.org/2000/svg" p-id="9854" xmlns:xlink="http://www.w3.org/1999/xlink" width="200" height="200"><path d="M862.037333 171.093333A85.333333 85.333333 0 0 1 938.666667 256v512a85.333333 85.333333 0 0 1-76.629334 84.906667L853.333333 853.333333H170.666667a85.333333 85.333333 0 0 1-85.333334-85.333333V256a85.333333 85.333333 0 0 1 85.333334-85.333333h682.666666l8.704 0.426666zM170.666667 230.4a25.6 25.6 0 0 0-25.6 25.6v512a25.6 25.6 0 0 0 25.6 25.6h183.466666V230.4H170.666667z m243.2 563.2H853.333333a25.6 25.6 0 0 0 25.6-25.6V256a25.6 25.6 0 0 0-25.6-25.6H413.866667v563.2z" fill="#8C8C8C" p-id="9855"></path></svg>