<?xml version="1.0" standalone="no"?><!DOCTYPE svg PUBLIC "-//W3C//DTD SVG 1.1//EN" "http://www.w3.org/Graphics/SVG/1.1/DTD/svg11.dtd"><svg t="1780453845981" class="icon" viewBox="0 0 1024 1024" version="1.1" xmlns="http://www.w3.org/2000/svg" p-id="5590" xmlns:xlink="http://www.w3.org/1999/xlink" width="200" height="200"><path d="M859.5 193H446.939c-1.851-53.25-45.747-96-99.439-96h-183C109.635 97 65 141.635 65 196.5v632c0 54.864 44.635 99.5 99.5 99.5h695c54.864 0 99.5-44.636 99.5-99.5v-536c0-54.865-44.636-99.5-99.5-99.5z m-695-33h183c20.126 0 36.5 16.374 36.5 36.5v28c0 17.397 14.103 31.5 31.5 31.5h444c20.126 0 36.5 16.374 36.5 36.5V321H128V196.5c0-20.126 16.374-36.5 36.5-36.5z m695 705h-695c-20.126 0-36.5-16.374-36.5-36.5V384h768v444.5c0 20.126-16.374 36.5-36.5 36.5z" fill="#070102" p-id="5591"></path></svg>