<?xml version="1.0" standalone="no"?><!DOCTYPE svg PUBLIC "-//W3C//DTD SVG 1.1//EN" "http://www.w3.org/Graphics/SVG/1.1/DTD/svg11.dtd"><svg t="1780454498169" class="icon" viewBox="0 0 1024 1024" version="1.1" xmlns="http://www.w3.org/2000/svg" p-id="13870" xmlns:xlink="http://www.w3.org/1999/xlink" width="200" height="200"><path d="M81.06666666666665 573.8826666666666C81.06666666666665 735.8112 198.42026666666666 853.3333333333333 360.14079999999996 853.3333333333333H900.2666666666667c18.88 0 34.13333333333333-15.258666666666667 34.13333333333333-34.13333333333333s-15.258666666666667-34.13333333333333-34.13333333333333-34.13333333333333H360.14079999999996C236.03199999999995 785.0666666666666 149.33333333333334 698.2314666666666 149.33333333333334 573.8826666666666v-6.6197333333333335C149.33333333333334 438.48 239.9584 341.33333333333337 360.14079999999996 341.33333333333337h455.8848L705.8431999999998 451.85386666666665c-13.2768 13.348266666666666-13.347199999999999 34.952533333333335 0.06506666666666666 48.2624a34.13333333333333 34.13333333333333 0 0 0 48.26773333333333-0.06613333333333332l169.504-169.984c0.031999999999999994-0.031999999999999994 0.031999999999999994-0.06506666666666666 0.06399999999999999-0.10346666666666667 0.034133333333333335-0.031999999999999994 0.06613333333333332-0.031999999999999994 0.10453333333333334-0.0704a34.144 34.144 0 0 0-0.2730666666666667-48.26773333333333L752.6357333333333 112.56320000000005a34.13333333333333 34.13333333333333 0 0 0-47.9936 48.53546666666667l113.18613333333332 111.95733333333332H360.14079999999996C201.04746666666662 273.05600000000004 81.06666666666665 399.55626666666666 81.06666666666665 567.2522666666666v6.6304z" p-id="13871"></path></svg>