<?xml version="1.0" standalone="no"?><!DOCTYPE svg PUBLIC "-//W3C//DTD SVG 1.1//EN" "http://www.w3.org/Graphics/SVG/1.1/DTD/svg11.dtd"><svg t="1780454657571" class="icon" viewBox="0 0 1024 1024" version="1.1" xmlns="http://www.w3.org/2000/svg" p-id="17256" xmlns:xlink="http://www.w3.org/1999/xlink" width="200" height="200"><path d="M992 896H32c-17.68 0-32 14.32-32 32v64c0 17.68 14.32 32 32 32h960c17.68 0 32-14.32 32-32v-64c0-17.68-14.32-32-32-32z m-96-512C896 171.92 724.08 0 512 0S128 171.92 128 384v448h768V384z m-192-16c0 17.68-14.32 32-32 32h-112v256c0 17.68-14.32 32-32 32h-32c-17.68 0-32-14.32-32-32V400h-112c-17.68 0-32-14.32-32-32v-32c0-17.68 14.32-32 32-32h112v-96c0-17.68 14.32-32 32-32h32c17.68 0 32 14.32 32 32v96h112c17.68 0 32 14.32 32 32v32z" p-id="17257" fill="#d81e06"></path></svg>