<?xml version="1.0" standalone="no"?><!DOCTYPE svg PUBLIC "-//W3C//DTD SVG 1.1//EN" "http://www.w3.org/Graphics/SVG/1.1/DTD/svg11.dtd"><svg t="1780454876378" class="icon" viewBox="0 0 1137 1024" version="1.1" xmlns="http://www.w3.org/2000/svg" p-id="22851" xmlns:xlink="http://www.w3.org/1999/xlink" width="222.0703125" height="200"><path d="M1125.7289 902.120445L639.284713 40.162507C633.083986 17.179996 605.322933 0 571.930027 0 538.195797 0 510.548519 17.635095 504.632229 40.788268L6.867448 922.82746c-10.979269 12.117017-8.817548 39.536745 6.655827 65.136077 15.530261 26.111318 38.910984 40.674493 54.043033 34.701316l1008.386114 0.910198c17.407545 1.30841 38.11456-13.823639 51.028001-40.731381 15.132049-31.003635 14.164963-65.989388-1.194635-80.780113zM512.027591 357.707993c0-31.856946 25.485557-57.62694 56.830517-57.62694 31.458734 0 56.887403 25.769994 56.887403 57.62694v296.952246c0 31.686284-25.428669 57.570052-56.887403 57.570053-31.288072 0-56.887403-25.883769-56.887404-57.62694v-296.952246z m-4.266555 481.950083c0-32.596482 26.395755-58.878463 58.992238-58.878463 32.539595 0 58.93535 26.28198 58.93535 58.878463S599.292868 898.820975 566.753274 898.820975a59.049125 59.049125 0 0 1-58.992238-59.106012z" fill="#f4ea2a" p-id="22852"></path></svg>