<?xml version="1.0" standalone="no"?><!DOCTYPE svg PUBLIC "-//W3C//DTD SVG 1.1//EN" "http://www.w3.org/Graphics/SVG/1.1/DTD/svg11.dtd"><svg t="1780454815954" class="icon" viewBox="0 0 1024 1024" version="1.1" xmlns="http://www.w3.org/2000/svg" p-id="20942" id="mx_n_1780454815955" xmlns:xlink="http://www.w3.org/1999/xlink" width="200" height="200"><path d="M512 967.111111c-250.311111 0-455.111111-204.8-455.111111-455.111111s204.8-455.111111 455.111111-455.111111 455.111111 204.8 455.111111 455.111111-204.8 455.111111-455.111111 455.111111z" fill="#f4ea2a" p-id="20943" data-spm-anchor-id="a313x.search_index.0.i25.3bb43a81Nrp4Jx" class="selected"></path><path d="M512 614.4c-22.755556 0-39.822222-17.066667-39.822222-39.822222V312.888889c0-22.755556 17.066667-39.822222 39.822222-39.822222 22.755556 0 39.822222 17.066667 39.822222 39.822222v261.688889c0 22.755556-17.066667 39.822222-39.822222 39.822222zM512 768c-22.755556 0-39.822222-17.066667-39.822222-39.822222 0-22.755556 17.066667-39.822222 39.822222-39.822222 22.755556 0 39.822222 17.066667 39.822222 39.822222 0 22.755556-17.066667 39.822222-39.822222 39.822222z" fill="#FFFFFF" p-id="20944" data-spm-anchor-id="a313x.search_index.0.i24.3bb43a81Nrp4Jx" class=""></path></svg>